<?xml version="1.0" encoding="utf-8"?>
<!-- Generator: Adobe Illustrator 24.2.3, SVG Export Plug-In . SVG Version: 6.00 Build 0)  -->
<svg version="1.1" id="Capa_1" xmlns="http://www.w3.org/2000/svg" xmlns:xlink="http://www.w3.org/1999/xlink" x="0px" y="0px"
	 viewBox="0 0 16 16" style="enable-background:new 0 0 16 16;" xml:space="preserve">
<style type="text/css">
	.st0{fill:#000E2B;}
	.st1{fill:#FFFFFF;}
	.st2{fill:#2852E8;}
</style>
<g>
	<path class="st0" d="M-22.24,0.14h-11.51c-1.17,0-2.13,0.96-2.13,2.13v11.51c0,1.17,0.96,2.13,2.13,2.13h11.51
		c1.17,0,2.13-0.96,2.13-2.13V2.27C-20.11,1.1-21.07,0.14-22.24,0.14z"/>
	<g>
		<g>
			<path class="st1" d="M-24.58,3.59c-0.05,0.02-0.09,0.05-0.11,0.11l-1.47,3.09c-0.01,0.02-0.01,0.07-0.01,0.11l0.15,0.8
				c0.02,0.06,0.05,0.11,0.08,0.12l2.34,1.31c0.1,0.05,0.23,0.04,0.29-0.07l0.35-0.62c0.03-0.05,0.04-0.1,0.03-0.14
				c-0.01-0.05-0.05-0.1-0.12-0.14l-1.98-1.11l1.35-2.83c0.05-0.11-0.01-0.23-0.1-0.29l-0.63-0.31
				C-24.47,3.58-24.52,3.57-24.58,3.59z"/>
			<path class="st1" d="M-26.95,8.85c0.38-1.44-0.33-2.76-1.69-3.11c-0.94-0.25-1.94,0.04-2.83,0.81c-0.51,0.45-0.95,1.03-1.27,1.68
				c-0.11,0.24-0.26,0.62-0.32,1.11c-0.04,0.32-0.18,1.56,0.64,2.35c0.38,0.37,0.82,0.51,1.03,0.56c1.33,0.35,2.33-0.25,2.93-0.81
				C-27.76,10.78-27.2,9.82-26.95,8.85z M-29.4,10.37c-0.53,0.48-1.13,0.67-1.63,0.54c-0.02-0.01-0.04-0.01-0.06-0.02
				c-0.29-0.09-0.5-0.29-0.62-0.57c-0.1-0.25-0.11-0.56-0.03-0.86c0.17-0.66,0.57-1.33,1.07-1.79c0.55-0.52,1.15-0.73,1.67-0.59
				c0.4,0.11,0.65,0.35,0.74,0.71c0.07,0.28,0.01,0.56-0.03,0.71C-28.47,9.22-28.87,9.9-29.4,10.37z"/>
		</g>
	</g>
</g>
<g>
	<path class="st2" d="M13.76,0.14H2.24c-1.17,0-2.13,0.96-2.13,2.13v11.51c0,1.17,0.96,2.13,2.13,2.13h11.51
		c1.17,0,2.13-0.96,2.13-2.13V2.27C15.89,1.1,14.93,0.14,13.76,0.14z"/>
	<g>
		<g>
			<path class="st1" d="M11.42,3.59c-0.05,0.02-0.09,0.05-0.11,0.11L9.85,6.79C9.84,6.81,9.84,6.86,9.84,6.89l0.15,0.8
				C10,7.75,10.04,7.8,10.07,7.81l2.34,1.31c0.1,0.05,0.23,0.04,0.29-0.07l0.35-0.62c0.03-0.05,0.04-0.1,0.03-0.14
				c-0.01-0.05-0.05-0.1-0.12-0.14l-1.98-1.11l1.35-2.83c0.05-0.11-0.01-0.23-0.1-0.29L11.59,3.6C11.53,3.58,11.48,3.57,11.42,3.59z
				"/>
			<path class="st1" d="M9.05,8.85C9.44,7.4,8.73,6.09,7.37,5.73C6.43,5.48,5.42,5.77,4.54,6.54C4.02,6.99,3.59,7.57,3.27,8.22
				C3.16,8.46,3.01,8.84,2.95,9.32c-0.04,0.32-0.18,1.56,0.64,2.35c0.38,0.37,0.82,0.51,1.03,0.56c1.33,0.35,2.33-0.25,2.93-0.81
				C8.24,10.78,8.8,9.82,9.05,8.85z M6.6,10.37c-0.53,0.48-1.13,0.67-1.63,0.54c-0.02-0.01-0.04-0.01-0.06-0.02
				c-0.29-0.09-0.5-0.29-0.62-0.57c-0.1-0.25-0.11-0.56-0.03-0.86C4.44,8.8,4.84,8.13,5.34,7.67c0.55-0.52,1.15-0.73,1.67-0.59
				c0.4,0.11,0.65,0.35,0.74,0.71c0.07,0.28,0.01,0.56-0.03,0.71C7.53,9.22,7.13,9.9,6.6,10.37z"/>
		</g>
	</g>
</g>
</svg>
